<svg width="19" height="15" viewBox="0 0 19 15" fill="none" xmlns="http://www.w3.org/2000/svg">
<path d="M1.38919 1.09508L1.22142 1.24311C1.22501 1.23948 1.22862 1.23585 1.23223 1.23223C1.35288 1.11158 1.48459 1.00454 1.62498 0.912089C1.54289 0.967841 1.46418 1.02891 1.38919 1.09508ZM0.5 3C0.5 2.8198 0.519455 2.64161 0.557201 2.46823C0.520797 2.63915 0.5 2.81849 0.5 3ZM1.40212 1.86054L1.10639 1.66868L1.44853 1.88989L9.22853 6.91989L9.5 7.0954L9.77147 6.91989L17.5515 1.88989L17.8937 1.6686L17.5979 1.86054L9.5 7.114L1.40212 1.86054ZM18.5 3C18.5 2.81849 18.4792 2.63916 18.4428 2.46824C18.4805 2.64161 18.5 2.8198 18.5 3ZM17.7678 1.23223C17.7714 1.23585 17.775 1.23947 17.7786 1.24311L17.6108 1.09508C17.5358 1.02891 17.4571 0.967841 17.375 0.912089C17.5154 1.00454 17.6471 1.11158 17.7678 1.23223Z" fill="white" stroke="url(#paint0_radial_1_245)"/>
<defs>
<radialGradient id="paint0_radial_1_245" cx="0" cy="0" r="1" gradientUnits="userSpaceOnUse" gradientTransform="translate(-2.61343 -1.85467) rotate(35.598) scale(18.7818 35.1986)">
<stop stop-color="white"/>
<stop offset="1" stop-color="white" stop-opacity="0"/>
</radialGradient>
</defs>
</svg>
