<svg width="20" height="20" viewBox="0 0 20 20" fill="none" xmlns="http://www.w3.org/2000/svg">
<path d="M19.2013 7.79616H18.4203V7.75593H9.69491V11.6339H15.174C14.3746 13.8914 12.2267 15.5119 9.69491 15.5119C6.4825 15.5119 3.87796 12.9073 3.87796 9.69491C3.87796 6.4825 6.4825 3.87796 9.69491 3.87796C11.1777 3.87796 12.5268 4.43736 13.554 5.35111L16.2962 2.6089C14.5647 0.995183 12.2486 0 9.69491 0C4.3409 0 0 4.3409 0 9.69491C0 15.0489 4.3409 19.3898 9.69491 19.3898C15.0489 19.3898 19.3898 15.0489 19.3898 9.69491C19.3898 9.04487 19.3229 8.41034 19.2013 7.79616Z" fill="#FFC107"/>
<path d="M9.69486 19.3898C12.1991 19.3898 14.4745 18.4314 16.1948 16.873L13.1942 14.3339C12.1882 15.099 10.9588 15.5128 9.69486 15.5118C7.17321 15.5118 5.03209 13.9039 4.22548 11.66L1.06396 14.0959C2.66847 17.2356 5.92693 19.3898 9.69486 19.3898Z" fill="#4CAF50"/>
<path d="M19.2012 7.79622H18.4202V7.75598H9.69482V11.6339H15.1739C14.7915 12.7083 14.1028 13.6472 13.1927 14.3345L13.1942 14.3335L16.1948 16.8726C15.9825 17.0655 19.3897 14.5424 19.3897 9.69496C19.3897 9.04492 19.3228 8.41039 19.2012 7.79622Z" fill="#1976D2"/>
<path d="M1.11768 5.18242L4.30294 7.5184C5.16482 5.38455 7.25213 3.87796 9.69476 3.87796C11.1776 3.87796 12.5266 4.43736 13.5538 5.35111L16.296 2.6089C14.5645 0.995183 12.2484 0 9.69476 0C5.97095 0 2.74157 2.10234 1.11768 5.18242Z" fill="#FF3D00"/>
</svg>
