<svg width="19" height="19" viewBox="0 0 19 19" fill="none" xmlns="http://www.w3.org/2000/svg">
<path d="M17.3901 2.20914L18.0398 1.56857C18.2122 1.39625 18.309 1.16254 18.309 0.918845C18.309 0.675152 18.2122 0.44144 18.0398 0.269123C17.8675 0.0968065 17.6338 0 17.3901 0C17.1464 0 16.9127 0.0968065 16.7404 0.269123L15.4593 1.55942L12.8695 4.14915L7.09524 9.91428C6.14907 9.29003 5.00485 9.03923 3.88431 9.21047C2.76377 9.38171 1.74668 9.9628 1.03013 10.8411C0.313576 11.7195 -0.0514261 12.8325 0.0058485 13.9646C0.0631231 15.0968 0.538597 16.1673 1.34014 16.9688C2.14168 17.7704 3.21222 18.2458 4.34432 18.3031C5.47642 18.3604 6.58948 17.9954 7.46783 17.2788C8.34617 16.5623 8.92726 15.5452 9.0985 14.4247C9.26974 13.3041 9.01894 12.1599 8.39469 11.2137L13.5101 6.08916L15.4501 8.03833C15.5354 8.12305 15.6366 8.19014 15.7479 8.23576C15.8591 8.28138 15.9783 8.30464 16.0985 8.30421C16.2187 8.30379 16.3377 8.27969 16.4486 8.23328C16.5596 8.18687 16.6603 8.11907 16.745 8.03375C16.8297 7.94843 16.8968 7.84725 16.9424 7.736C16.988 7.62475 17.0113 7.50561 17.0109 7.38537C17.0104 7.26513 16.9863 7.14615 16.9399 7.03523C16.8935 6.9243 16.8257 6.82361 16.7404 6.73888L14.8004 4.79887L16.0998 3.50858L16.7404 4.14915C16.8251 4.23447 16.9258 4.30227 17.0367 4.34868C17.1477 4.39508 17.2666 4.41919 17.3869 4.41961C17.5071 4.42004 17.6263 4.39678 17.7375 4.35115C17.8488 4.30553 17.9499 4.23845 18.0353 4.15372C18.1206 4.069 18.1884 3.96831 18.2348 3.85738C18.2812 3.74646 18.3053 3.62748 18.3057 3.50724C18.3062 3.387 18.2829 3.26785 18.2373 3.1566C18.1917 3.04535 18.1246 2.94418 18.0398 2.85886L17.3901 2.20914ZM4.57872 16.4756C4.03575 16.4756 3.50497 16.3145 3.05351 16.0129C2.60205 15.7112 2.25018 15.2825 2.04239 14.7808C1.83461 14.2792 1.78024 13.7272 1.88617 13.1947C1.9921 12.6621 2.25356 12.173 2.6375 11.789C3.02143 11.4051 3.5106 11.1436 4.04314 11.0377C4.57567 10.9318 5.12766 10.9861 5.6293 11.1939C6.13094 11.4017 6.5597 11.7536 6.86135 12.205C7.16301 12.6565 7.32402 13.1873 7.32402 13.7303C7.32402 14.4584 7.03478 15.1566 6.51994 15.6715C6.0051 16.1863 5.30682 16.4756 4.57872 16.4756Z" fill="white"/>
</svg>
